<svg width="200" height="200" viewBox="0 0 200 200" fill="none" xmlns="http://www.w3.org/2000/svg">
  <!-- Traqueia -->
  <path d="M100 25V75" stroke="#78909C" stroke-width="6" stroke-linecap="round"/>
  
  <!-- Brônquios principais -->
  <path d="M100 75L75 95" stroke="#78909C" stroke-width="5" stroke-linecap="round"/>
  <path d="M100 75L125 95" stroke="#78909C" stroke-width="5" stroke-linecap="round"/>
  
  <!-- Brônquios secundários -->
  <path d="M75 95L65 110" stroke="#78909C" stroke-width="4" stroke-linecap="round"/>
  <path d="M75 95L85 110" stroke="#78909C" stroke-width="4" stroke-linecap="round"/>
  <path d="M125 95L115 110" stroke="#78909C" stroke-width="4" stroke-linecap="round"/>
  <path d="M125 95L135 110" stroke="#78909C" stroke-width="4" stroke-linecap="round"/>
  
  <!-- Pulmão esquerdo -->
  <path d="M60 170C40 155 30 135 45 100C50 90 60 85 75 95C80 100 80 110 75 130C70 150 65 160 60 170Z" fill="#81D4FA" stroke="#0288D1" stroke-width="2"/>
  
  <!-- Pulmão direito -->
  <path d="M140 170C160 155 170 135 155 100C150 90 140 85 125 95C120 100 120 110 125 130C130 150 135 160 140 170Z" fill="#81D4FA" stroke="#0288D1" stroke-width="2"/>
  
  <!-- Detalhes dos brônquios - pulmão esquerdo -->
  <path d="M70 120C65 130 65 140 70 150" stroke="#0288D1" stroke-width="1.5" stroke-linecap="round"/>
  <path d="M55 120C50 130 50 140 55 150" stroke="#0288D1" stroke-width="1.5" stroke-linecap="round"/>
  
  <!-- Detalhes dos brônquios - pulmão direito -->
  <path d="M130 120C135 130 135 140 130 150" stroke="#0288D1" stroke-width="1.5" stroke-linecap="round"/>
  <path d="M145 120C150 130 150 140 145 150" stroke="#0288D1" stroke-width="1.5" stroke-linecap="round"/>
  
  <!-- Diafragma -->
  <path d="M50 170C75 180 125 180 150 170" stroke="#5D4037" stroke-width="3" stroke-linecap="round"/>
  
  <!-- Animação de respiração -->
  <g>
    <animate attributeName="opacity" values="0.4;0.8;0.4" dur="4s" repeatCount="indefinite"/>
    <circle cx="70" cy="130" r="15" fill="#E1F5FE" opacity="0.4"/>
    <circle cx="130" cy="130" r="15" fill="#E1F5FE" opacity="0.4"/>
  </g>
  
  <!-- Alvéolos -->
  <circle cx="70" cy="120" r="3" fill="#E1F5FE" stroke="#0288D1" stroke-width="0.5"/>
  <circle cx="65" cy="130" r="3" fill="#E1F5FE" stroke="#0288D1" stroke-width="0.5"/>
  <circle cx="75" cy="130" r="3" fill="#E1F5FE" stroke="#0288D1" stroke-width="0.5"/>
  <circle cx="70" cy="140" r="3" fill="#E1F5FE" stroke="#0288D1" stroke-width="0.5"/>
  
  <circle cx="130" cy="120" r="3" fill="#E1F5FE" stroke="#0288D1" stroke-width="0.5"/>
  <circle cx="125" cy="130" r="3" fill="#E1F5FE" stroke="#0288D1" stroke-width="0.5"/>
  <circle cx="135" cy="130" r="3" fill="#E1F5FE" stroke="#0288D1" stroke-width="0.5"/>
  <circle cx="130" cy="140" r="3" fill="#E1F5FE" stroke="#0288D1" stroke-width="0.5"/>
</svg> 